<svg xmlns="http://www.w3.org/2000/svg" aria-hidden="true" overflow="hidden" style="position:absolute;width:0;height:0">
  <defs>
    <symbol id="icon-facebook" viewBox="0 0 20 20">
      <path d="M13.33 3.32h1.83V.14C14.84.1 13.76 0 12.5 0 9.86 0 8.06 1.66 8.06 4.7v2.8h-2.9v3.56h2.9V20h3.56v-8.94h2.8l.43-3.56h-3.23V5.05c0-1.03.28-1.73 1.71-1.73z"/>
    </symbol>
    <symbol id="icon-instagram" viewBox="0 0 20 20">
      <path d="M19.98 5.88a7.31 7.31 0 0 0-.47-2.43 4.88 4.88 0 0 0-1.15-1.77c-.5-.5-1.1-.9-1.77-1.15a7.33 7.33 0 0 0-2.43-.47C13.1.01 12.76 0 10.04 0S6.98 0 5.9.06a7.13 7.13 0 0 0-2.4.46A5.03 5.03 0 0 0 .57 3.45 7.33 7.33 0 0 0 .1 5.88C.05 6.95.03 7.28.03 10s.02 3.06.06 4.12c.05 1.07.22 1.8.47 2.43a5 5 0 0 0 2.92 2.93c.64.24 1.37.41 2.43.46 1.07.05 1.4.06 4.12.06s3.06-.01 4.12-.06a7.31 7.31 0 0 0 2.43-.46 5.12 5.12 0 0 0 2.93-2.93 7.6 7.6 0 0 0 .46-2.43c.05-1.06.06-1.4.06-4.12s0-3.05-.05-4.12zm-1.8 8.17c-.04.97-.2 1.5-.35 1.85a3.32 3.32 0 0 1-1.9 1.9c-.35.14-.88.3-1.85.34-1.06.05-1.37.06-4.04.06s-2.99 0-4.04-.05a5.6 5.6 0 0 1-1.86-.35A3.08 3.08 0 0 1 3 17.05a3.1 3.1 0 0 1-.74-1.14 5.5 5.5 0 0 1-.35-1.86c-.04-1.06-.05-1.37-.05-4.04s0-2.99.05-4.04c.05-.98.21-1.5.35-1.86.16-.43.41-.82.75-1.15a3.1 3.1 0 0 1 1.15-.74c.35-.14.88-.3 1.85-.35 1.06-.04 1.37-.05 4.04-.05 2.68 0 3 0 4.04.05.98.05 1.5.21 1.86.35a3.2 3.2 0 0 1 1.89 1.89c.14.36.3.89.35 1.86.05 1.05.06 1.37.06 4.04s-.01 2.98-.06 4.04z"/>
      <path d="M10.04 4.86a5.14 5.14 0 1 0 0 10.28 5.14 5.14 0 0 0 0-10.28zm0 8.47a3.33 3.33 0 1 1 0-6.66 3.33 3.33 0 0 1 0 6.67zm6.54-8.67a1.2 1.2 0 1 1-2.4 0 1.2 1.2 0 0 1 2.4 0z"/>
    </symbol>
    <symbol id="icon-linkedin" viewBox="0 0 20 20">
      <path d="M20 20v-7.34c0-3.58-.77-6.35-4.97-6.35a4.35 4.35 0 0 0-3.92 2.16h-.06V6.65H7.07V20h4.15v-6.61c0-1.74.33-3.43 2.48-3.43 2.13 0 2.16 1.99 2.16 3.54V20H20zM.33 6.65h4.15V20H.33V6.65zM2.4 0C1.08 0 0 1.08 0 2.4s1.08 2.43 2.4 2.43A2.42 2.42 0 0 0 2.4 0z"/>
    </symbol>
    <symbol id="icon-twitter" viewBox="0 0 20 20">
      <path d="M20 3.8a8.6 8.6 0 0 1-2.36.65c.85-.51 1.5-1.3 1.8-2.27-.8.47-1.67.8-2.6 1a4.11 4.11 0 0 0-7 3.73A11.6 11.6 0 0 1 1.4 2.62 4.13 4.13 0 0 0 2.65 8.1C2 8.1 1.35 7.9.8 7.6v.04c0 2 1.42 3.65 3.28 4.03a4.1 4.1 0 0 1-1.85.07 4.14 4.14 0 0 0 3.83 2.85A8.24 8.24 0 0 1 0 16.3a11.55 11.55 0 0 0 6.29 1.83c7.54 0 11.67-6.25 11.67-11.66 0-.18 0-.36-.02-.53.82-.58 1.5-1.3 2.06-2.13z"/>
    </symbol>
    <symbol id="icon-phone" viewBox="0 0 20 20">
      <path stroke-linejoin="round" stroke-linecap="round" stroke-miterlimit="4" stroke-width="0.8333" d="M16.666 13.336v2.011c0.002 0.378-0.156 0.738-0.434 0.993s-0.651 0.381-1.027 0.347c-2.063-0.224-4.044-0.929-5.786-2.058-1.62-1.029-2.993-2.403-4.022-4.022-1.133-1.749-1.838-3.74-2.058-5.812-0.034-0.375 0.091-0.747 0.345-1.025s0.613-0.436 0.989-0.437h2.011c0.673-0.007 1.247 0.487 1.341 1.153 0.085 0.644 0.242 1.276 0.469 1.884 0.184 0.49 0.066 1.042-0.302 1.415l-0.851 0.851c0.954 1.678 2.344 3.068 4.022 4.022l0.851-0.851c0.372-0.368 0.925-0.486 1.415-0.302 0.608 0.227 1.24 0.384 1.884 0.469 0.674 0.095 1.17 0.68 1.153 1.361z"></path>
    </symbol>
    <symbol id="icon-mail" viewBox="0 0 20 20">
      <path stroke-linejoin="round" stroke-linecap="round" stroke-miterlimit="4" stroke-width="0.8333" d="M4 4.167h12c0.833 0 1.5 0.667 1.5 1.5v8.667c0 0.833-0.667 1.5-1.5 1.5h-12c-0.833 0-1.5-0.667-1.5-1.5v-8.667c0-0.833 0.667-1.5 1.5-1.5z"></path>
      <path stroke-linejoin="round" stroke-linecap="round" stroke-miterlimit="4" stroke-width="0.8333" d="M16.667 5.833l-6.667 5-6.667-5"></path>
    </symbol>
    <symbol id="icon-map-pin" viewBox="0 0 20 20">
      <path stroke-linejoin="round" stroke-linecap="round" stroke-miterlimit="4" stroke-width="0.8333" d="M16.667 8.667c0 4.667-6.667 8.833-6.667 8.833s-6.667-4.167-6.667-8.833c0-3.417 3-6.167 6.667-6.167s6.667 2.75 6.667 6.167v0z"></path>
      <path stroke-linejoin="round" stroke-linecap="round" stroke-miterlimit="4" stroke-width="0.8333" d="M10 11.667c1.381 0 2.5-1.119 2.5-2.5s-1.119-2.5-2.5-2.5v0c-1.381 0-2.5 1.119-2.5 2.5s1.119 2.5 2.5 2.5v0z"></path>
    </symbol>
    <symbol id="icon-burger-menu" viewBox="0 0 20 20">
      <path d="M4 7.333v-1.333h12v1.333h-12zM4 10.667h12v-1.333h-12v1.333zM4 14h12v-1.333h-12v1.333z"></path>
    </symbol>
  </defs>
</svg>
